<svg width="17" height="17" viewBox="0 0 17 17" fill="none" xmlns="http://www.w3.org/2000/svg">
<path d="M15.1004 1L10.0779 5.98132M10.0779 5.98132L13.1079 5.98134M10.0779 5.98132V2.99998M14.3106 11.5149L13.1675 10.371C12.0245 9.22712 11.1917 10.0014 10.3294 10.8275C10.0134 11.1436 9.585 11.3211 9.13826 11.3211C8.69152 11.3211 8.26307 11.1436 7.94716 10.8275L6.07591 8.95494C5.41948 8.29851 5.15114 7.49584 6.07591 6.57107C6.9247 5.7027 7.7596 4.9593 6.56851 3.76737L5.37741 2.57544C4.47249 1.66988 3.38604 2.19244 2.75899 2.81169C-0.37359 5.92349 1.03877 9.58175 4.16965 12.7131C7.30052 15.8445 10.9571 17.2596 14.0744 14.1385C14.2488 13.9924 14.6254 13.5735 14.7217 13.3673C14.818 13.1611 14.8679 12.9362 14.8679 12.7086C14.8679 12.4809 14.818 12.2561 14.7217 12.0498C14.6254 11.8436 14.4851 11.661 14.3106 11.5149Z" stroke="white" stroke-width="2" stroke-linecap="round" stroke-linejoin="round"/>
</svg>
